<?xml version="1.0" encoding="UTF-8"?>
<svg id="Ebene_5" data-name="Ebene 5" xmlns="http://www.w3.org/2000/svg" viewBox="0 0 80 80">
  <defs>
    <style>
      .cls-1 {
        fill: #fff;
      }

      .cls-2 {
        fill: none;
        stroke: #fff;
        stroke-width: .5px;
      }

      .cls-2, .cls-3 {
        stroke-miterlimit: 10;
      }

      .cls-4 {
        fill: #0080ff;
      }

      .cls-3 {
        fill: #0049ff;
        stroke: #688399;
        stroke-width: .25px;
      }
    </style>
  </defs>
  <g>
    <path class="cls-3" d="M75.05,34.33c-2.98-16.88-17.71-29.7-35.44-29.7C19.73,4.63,3.61,20.74,3.61,40.63c0,1.7.13,3.37.35,5,5.88,2.97,12.65,6.84,17.65,8.92s37.42,13.99,17.21-12.47c-5.05-6.61-15.21-26.45-3.21-26.45s30,8,39,19"/>
    <path class="cls-4" d="M49.61,20.63c-12-2-22-1-8,18s14.65,28.74-3.67,24.87S7.58,48.93,3.99,45.78c2.5,17.44,17.49,30.85,35.63,30.85,19.88,0,36-16.12,36-36,0-2.1-.19-4.16-.54-6.17-5.34-3.76-13.46-11.83-25.46-13.83Z"/>
    <path class="cls-1" d="M3.61,45.45c.09.08.22.2.37.33,0-.05-.01-.1-.02-.15-.12-.06-.24-.12-.35-.18Z"/>
    <path class="cls-1" d="M75.61,34.84c-.19-.17-.37-.34-.56-.51,0,.04.02.09.02.13.18.13.38.26.54.38Z"/>
  </g>
  <line class="cls-2" x1="35.15" y1="78.84" x2="46.65" y2="70.63"/>
  <line class="cls-2" x1="58.97" y1="53.38" x2="47.47" y2="69.81"/>
  <line class="cls-2" x1="50.76" y1="40.23" x2="58.97" y2="51.73"/>
  <line class="cls-2" x1="49.11" y1="22.16" x2="50.76" y2="40.23"/>
  <line class="cls-2" x1="52.4" y1="10.66" x2="49.11" y2="20.52"/>
  <line class="cls-2" x1="52.4" y1="-5.77" x2="52.4" y2="9.02"/>
  <line class="cls-2" x1="37.61" y1="25.45" x2="49.11" y2="20.52"/>
  <line class="cls-2" x1="35.97" y1="45.16" x2="37.61" y2="25.45"/>
  <line class="cls-2" x1="50.76" y1="40.23" x2="35.97" y2="45.16"/>
  <line class="cls-2" x1="26.11" y1="53.38" x2="35.97" y2="45.16"/>
  <line class="cls-2" x1="16.26" y1="71.45" x2="26.11" y2="53.38"/>
  <line class="cls-2" x1="21.19" y1="20.52" x2="37.61" y2="25.45"/>
  <circle class="cls-1" cx="20.77" cy="20.02" r="1.52"/>
  <circle class="cls-1" cx="37.11" cy="24.89" r="1.93"/>
  <circle class="cls-1" cx="52.76" cy="9.99" r="1.3"/>
  <circle class="cls-1" cx="49.44" cy="21.29" r="1.06"/>
  <circle class="cls-1" cx="50.38" cy="39.93" r="1.23"/>
  <circle class="cls-1" cx="58.83" cy="52.43" r="1.78"/>
  <circle class="cls-1" cx="36.37" cy="45.18" r="1.19"/>
  <circle class="cls-1" cx="16.35" cy="71.42" r="1.74"/>
  <circle class="cls-1" cx="46.83" cy="70.76" r="1.17"/>
</svg>